<svg width="1024" height="1024" viewBox="0 0 1024 1024" fill="none" xmlns="http://www.w3.org/2000/svg">
<mask id="path-1-outside-1_1_2" maskUnits="userSpaceOnUse" x="72" y="72" width="880" height="880" fill="black">
<rect fill="white" x="72" y="72" width="880" height="880"/>
<path fill-rule="evenodd" clip-rule="evenodd" d="M512 944C750.587 944 944 750.587 944 512C944 273.413 750.587 80 512 80C273.413 80 80 273.413 80 512C80 750.587 273.413 944 512 944ZM512 640C582.692 640 640 582.692 640 512C640 441.308 582.692 384 512 384C441.308 384 384 441.308 384 512C384 582.692 441.308 640 512 640Z"/>
</mask>
<path fill-rule="evenodd" clip-rule="evenodd" d="M512 944C750.587 944 944 750.587 944 512C944 273.413 750.587 80 512 80C273.413 80 80 273.413 80 512C80 750.587 273.413 944 512 944ZM512 640C582.692 640 640 582.692 640 512C640 441.308 582.692 384 512 384C441.308 384 384 441.308 384 512C384 582.692 441.308 640 512 640Z" fill="url(#paint0_linear_1_2)"/>
<path d="M936 512C936 746.169 746.169 936 512 936V952C755.005 952 952 755.005 952 512H936ZM512 88C746.169 88 936 277.831 936 512H952C952 268.995 755.005 72 512 72V88ZM88 512C88 277.831 277.831 88 512 88V72C268.995 72 72 268.995 72 512H88ZM512 936C277.831 936 88 746.169 88 512H72C72 755.005 268.995 952 512 952V936ZM632 512C632 578.274 578.274 632 512 632V648C587.111 648 648 587.111 648 512H632ZM512 392C578.274 392 632 445.726 632 512H648C648 436.889 587.111 376 512 376V392ZM392 512C392 445.726 445.726 392 512 392V376C436.889 376 376 436.889 376 512H392ZM512 632C445.726 632 392 578.274 392 512H376C376 587.111 436.889 648 512 648V632Z" fill="#9CA3AF" mask="url(#path-1-outside-1_1_2)"/>
<defs>
<linearGradient id="paint0_linear_1_2" x1="80" y1="80" x2="944" y2="944" gradientUnits="userSpaceOnUse">
<stop stop-color="#E480F0"/>
<stop offset="0.39" stop-color="#D99BE7"/>
<stop offset="0.495" stop-color="#E6DDE6"/>
<stop offset="0.61" stop-color="#E1C187"/>
<stop offset="1" stop-color="#98710D"/>
</linearGradient>
</defs>
</svg>
